<svg xmlns="http://www.w3.org/2000/svg" xmlns:xlink="http://www.w3.org/1999/xlink" width="120" zoomAndPan="magnify" viewBox="0 0 90 37.5" height="50" preserveAspectRatio="xMidYMid meet" version="1.0"><defs><g/><clipPath id="2e345fd101"><path d="M 0.59375 0 L 89.40625 0 L 89.40625 37.007812 L 0.59375 37.007812 Z M 0.59375 0 " clip-rule="nonzero"/></clipPath><clipPath id="b9f0a574c1"><path d="M 0.59375 0 L 89.40625 0 L 89.40625 37.007812 L 0.59375 37.007812 Z M 0.59375 0 " clip-rule="nonzero"/></clipPath><clipPath id="94908171db"><rect x="0" width="90" y="0" height="38"/></clipPath></defs><g clip-path="url(#2e345fd101)"><path fill="#ffffff" d="M 0.59375 0 L 89.40625 0 L 89.40625 37.007812 L 0.59375 37.007812 Z M 0.59375 0 " fill-opacity="1" fill-rule="nonzero"/><path fill="#1e1e1e" d="M 0.59375 0 L 89.40625 0 L 89.40625 37.007812 L 0.59375 37.007812 Z M 0.59375 0 " fill-opacity="1" fill-rule="nonzero"/><g transform="matrix(1, 0, 0, 1, 0, -0.000000000000001478)"><g clip-path="url(#94908171db)"><g clip-path="url(#b9f0a574c1)"><rect x="-19.8" width="129.6" fill="#1e1e1e" height="54" y="-8.25" fill-opacity="1"/></g></g></g></g><g fill="#4d4d4d" fill-opacity="1"><g transform="translate(46.815633, 23.684211)"><g><path d="M 5.78125 0.15625 C 4.800781 0.15625 3.941406 -0.046875 3.203125 -0.453125 C 2.460938 -0.859375 1.878906 -1.46875 1.453125 -2.28125 C 1.035156 -3.09375 0.828125 -4.09375 0.828125 -5.28125 C 0.828125 -6.476562 1.035156 -7.484375 1.453125 -8.296875 C 1.878906 -9.109375 2.460938 -9.710938 3.203125 -10.109375 C 3.941406 -10.515625 4.800781 -10.71875 5.78125 -10.71875 C 6.800781 -10.71875 7.664062 -10.519531 8.375 -10.125 C 9.082031 -9.726562 9.585938 -9.125 9.890625 -8.3125 L 8.375 -7.375 L 8.1875 -7.390625 C 7.957031 -7.929688 7.648438 -8.320312 7.265625 -8.5625 C 6.878906 -8.800781 6.382812 -8.921875 5.78125 -8.921875 C 4.90625 -8.921875 4.21875 -8.628906 3.71875 -8.046875 C 3.226562 -7.472656 2.984375 -6.550781 2.984375 -5.28125 C 2.984375 -4.03125 3.226562 -3.113281 3.71875 -2.53125 C 4.21875 -1.945312 4.90625 -1.65625 5.78125 -1.65625 C 7.15625 -1.65625 7.992188 -2.320312 8.296875 -3.65625 L 8.484375 -3.65625 L 10.03125 -2.859375 C 9.738281 -1.859375 9.242188 -1.101562 8.546875 -0.59375 C 7.847656 -0.09375 6.925781 0.15625 5.78125 0.15625 Z M 5.78125 0.15625 "/></g></g></g><g fill="#4d4d4d" fill-opacity="1"><g transform="translate(57.180366, 23.684211)"><g><path d="M 4.765625 -6.125 L 7.15625 -6.125 L 7.15625 -4.453125 L 4.765625 -4.453125 L 4.765625 -2.03125 L 3.03125 -2.03125 L 3.03125 -4.453125 L 0.625 -4.453125 L 0.625 -6.125 L 3.03125 -6.125 L 3.03125 -8.546875 L 4.765625 -8.546875 Z M 4.765625 -6.125 "/></g></g></g><g fill="#4d4d4d" fill-opacity="1"><g transform="translate(64.979213, 23.684211)"><g><path d="M 4.765625 -6.125 L 7.15625 -6.125 L 7.15625 -4.453125 L 4.765625 -4.453125 L 4.765625 -2.03125 L 3.03125 -2.03125 L 3.03125 -4.453125 L 0.625 -4.453125 L 0.625 -6.125 L 3.03125 -6.125 L 3.03125 -8.546875 L 4.765625 -8.546875 Z M 4.765625 -6.125 "/></g></g></g><path fill="#4d4d4d" d="M 30.292969 10.808594 L 20.320312 5.203125 C 19.566406 4.78125 18.625 4.78125 17.871094 5.203125 L 7.898438 10.808594 C 7.136719 11.234375 6.660156 12.039062 6.660156 12.898438 L 6.660156 24.109375 C 6.660156 24.96875 7.136719 25.769531 7.898438 26.199219 L 17.871094 31.800781 C 18.25 32.015625 18.671875 32.121094 19.09375 32.121094 C 19.519531 32.121094 19.941406 32.015625 20.320312 31.800781 L 30.292969 26.199219 C 31.054688 25.769531 31.53125 24.96875 31.53125 24.109375 L 31.53125 12.898438 C 31.53125 12.039062 31.054688 11.234375 30.292969 10.808594 Z M 19.09375 25.609375 C 15.175781 25.609375 11.988281 22.421875 11.988281 18.503906 C 11.988281 14.585938 15.175781 11.398438 19.09375 11.398438 C 21.335938 11.398438 23.402344 12.4375 24.746094 14.207031 L 22.152344 15.707031 C 21.371094 14.855469 20.261719 14.359375 19.09375 14.359375 C 16.808594 14.359375 14.949219 16.21875 14.949219 18.503906 C 14.949219 20.789062 16.808594 22.648438 19.09375 22.648438 C 20.261719 22.648438 21.371094 22.152344 22.152344 21.300781 L 24.746094 22.800781 C 23.402344 24.570312 21.335938 25.609375 19.09375 25.609375 Z M 26.199219 19.09375 L 25.015625 19.09375 L 25.015625 20.28125 L 23.832031 20.28125 L 23.832031 19.09375 L 22.648438 19.09375 L 22.648438 17.910156 L 23.832031 17.910156 L 23.832031 16.726562 L 25.015625 16.726562 L 25.015625 17.910156 L 26.199219 17.910156 Z M 30.34375 19.09375 L 29.160156 19.09375 L 29.160156 20.28125 L 27.976562 20.28125 L 27.976562 19.09375 L 26.792969 19.09375 L 26.792969 17.910156 L 27.976562 17.910156 L 27.976562 16.726562 L 29.160156 16.726562 L 29.160156 17.910156 L 30.34375 17.910156 Z M 30.34375 19.09375 " fill-opacity="1" fill-rule="nonzero"/></svg>